<svg width="100" height="100" viewBox="0 0 100 100" fill="none" xmlns="http://www.w3.org/2000/svg">
<path d="M82.8125 26.1249C84.2445 26.9393 85.4337 28.1206 86.2576 29.5472C87.0814 30.9738 87.5103 32.5942 87.5 34.2416V64.5916C87.5 67.9624 85.6542 71.0708 82.675 72.7083L54.55 90.4999C53.1556 91.2655 51.5907 91.6668 50 91.6668C48.4093 91.6668 46.8443 91.2655 45.45 90.4999L17.325 72.7083C15.8674 71.9117 14.6505 70.7381 13.8017 69.3102C12.9529 67.8824 12.5033 66.2527 12.5 64.5916V34.2374C12.5 30.8666 14.3458 27.7624 17.325 26.1249L45.45 9.54158C46.8856 8.75007 48.4982 8.33496 50.1375 8.33496C51.7768 8.33496 53.3894 8.75007 54.825 9.54158L82.95 26.1249H82.8125Z" fill="#5ECD5B" stroke="#5ECD5B" stroke-width="2" stroke-linecap="round" stroke-linejoin="round"/>
<path d="M43.3335 49.9997H51.6668C53.877 49.9997 55.9966 49.1217 57.5594 47.5589C59.1222 45.9961 60.0002 43.8765 60.0002 41.6663C60.0002 39.4562 59.1222 37.3366 57.5594 35.7738C55.9966 34.211 53.877 33.333 51.6668 33.333H43.3335V66.6663" stroke="white" stroke-width="2" stroke-linecap="round" stroke-linejoin="round"/>
</svg>
